<svg width="34" height="34" viewBox="0 0 34 34" fill="none" xmlns="http://www.w3.org/2000/svg">
<path d="M16.9444 33.5821C13.4992 33.5821 10.0454 33.5649 6.60017 33.5821C5.29635 33.5821 4.10478 33.2886 2.99955 32.6064C0.504164 31.0695 -0.411101 28.1855 0.167415 25.7419C0.815008 22.9961 3.12907 21.0793 5.95258 20.872C6.23752 20.8548 6.53109 20.8634 6.81603 20.8634C13.5942 20.8634 20.3809 20.8634 27.1591 20.8461C28.2125 20.8461 29.2141 20.9843 30.1812 21.3987C32.9529 22.5903 34.4207 25.3534 33.894 28.4359C33.4278 31.1558 30.9756 33.349 28.1521 33.5562C27.6944 33.5908 27.2368 33.5735 26.7705 33.5735C23.498 33.5735 20.2169 33.5735 16.9444 33.5735V33.5821ZM17.1343 22.4176C13.9741 22.4176 10.8138 22.4176 7.64495 22.4176C7.06644 22.4176 6.49655 22.4176 5.92667 22.4781C3.46582 22.7112 1.49714 24.7749 1.52304 27.1839C1.55758 29.8261 3.64715 31.8552 5.84896 31.9761C6.30659 32.002 6.76423 32.0279 7.23049 32.0279C13.7841 32.0279 20.3378 32.0279 26.8914 32.0279C27.4613 32.0279 28.0484 32.0106 28.6097 31.907C30.7942 31.5185 32.5125 29.4893 32.478 27.2616C32.4348 24.6972 30.777 22.9271 28.5147 22.5212C27.8412 22.4004 27.1418 22.4176 26.451 22.409C23.3426 22.4004 20.2428 22.409 17.1343 22.409V22.4176Z" fill="white"/>
<path d="M5.03737 12.4706C4.65745 11.9611 4.7697 11.374 4.83014 10.8127C5.2446 7.18622 6.95424 4.285 9.9418 2.2127C16.7372 -2.50178 26.5633 0.563498 28.8601 9.06856C29.0674 9.83703 29.171 10.64 29.2573 11.4431C29.3523 12.3324 29.0242 12.6605 28.0744 12.721C27.7895 12.7383 27.5045 12.7296 27.2109 12.7296C20.4328 12.7296 13.6633 12.7296 6.88517 12.7296C6.26348 12.7296 5.61588 12.8505 5.03737 12.4878V12.4706ZM27.5909 11.02C27.6427 6.95308 23.4635 1.40969 16.8322 1.50467C11.3924 1.58238 6.51388 6.01192 6.43617 11.0545C6.65203 11.0977 6.8679 11.1754 7.0924 11.1754C13.7669 11.1754 20.4328 11.1754 27.1073 11.1581C27.2714 11.1581 27.4354 11.0718 27.5909 11.02Z" fill="white"/>
<path d="M17.0135 14.6206C18.2137 14.6206 19.4139 14.6206 20.6227 14.6206C20.9077 14.6206 21.1926 14.6378 21.4775 14.6724C21.8229 14.7242 22.1597 15.1041 22.0561 15.3891C21.9697 15.6222 21.7711 15.8812 21.5466 15.9935C21.3049 16.1144 20.994 16.1144 20.7091 16.1144C18.2482 16.1144 15.7874 16.1144 13.3265 16.1144C13.0416 16.1144 12.7221 16.123 12.489 16.0021C12.2731 15.8899 12.0659 15.6308 11.9882 15.3977C11.8932 15.0955 12.2127 14.7156 12.558 14.6637C12.8948 14.6206 13.2402 14.6119 13.5855 14.6119C14.7339 14.6119 15.8737 14.6119 17.0221 14.6119L17.0135 14.6206Z" fill="white"/>
<path d="M17.1174 18.8516C15.9085 18.8516 14.6997 18.8516 13.4909 18.8516C13.1455 18.8516 12.7742 18.8689 12.472 18.748C12.2561 18.6616 11.9971 18.3594 11.9971 18.1522C11.9971 17.9277 12.2302 17.6514 12.4374 17.496C12.6015 17.3751 12.8778 17.3924 13.1023 17.3924C15.6927 17.3924 18.283 17.3924 20.8734 17.3924C21.0979 17.3924 21.3742 17.3665 21.5469 17.4787C21.7628 17.6169 22.0045 17.8845 22.0218 18.1004C22.0304 18.3076 21.7973 18.6357 21.5901 18.7221C21.2879 18.8516 20.9166 18.8343 20.5712 18.843C19.4228 18.8516 18.2658 18.843 17.1174 18.843V18.8516Z" fill="white"/>
<path d="M6.95462 24.2136C8.68153 24.0754 10.0372 25.6556 10.0372 27.2357C10.0372 28.8935 8.62972 30.2664 6.92871 30.2578C5.2277 30.2578 3.84617 28.8763 3.86344 27.2011C3.88071 25.4656 5.1759 24.2136 6.96325 24.2136H6.95462ZM6.98916 28.7295C7.81807 28.7036 8.45703 27.9955 8.43113 27.1407C8.40522 26.3291 7.63675 25.6642 6.81646 25.7333C6.07389 25.7937 5.4263 26.4931 5.43493 27.2357C5.43493 28.0387 6.19478 28.764 6.99779 28.7381L6.98916 28.7295Z" fill="white"/>
<path d="M16.9528 24.2137C18.7056 24.1964 20.0612 25.457 20.0958 27.158C20.1303 28.8245 18.7488 30.2406 17.0737 30.2579C15.3468 30.2751 13.9393 28.9713 13.9307 27.2789C13.9221 25.2066 15.6144 24.1014 16.9528 24.2137ZM18.5675 27.184C18.5588 26.4241 17.7299 25.6815 16.9355 25.7247C16.1671 25.7592 15.5281 26.4155 15.5195 27.1753C15.5022 28.0215 16.2016 28.7468 17.0132 28.7209C17.8163 28.7036 18.5847 27.9438 18.5675 27.1753V27.184Z" fill="white"/>
<path d="M30.1466 27.1149C30.1898 28.8246 28.8774 30.2147 27.185 30.2579C25.4581 30.3011 24.0938 29.0404 24.0075 27.3221C23.9211 25.6211 25.2249 24.2482 26.9778 24.2051C28.7392 24.1619 30.1121 25.4139 30.1466 27.1149ZM28.627 27.2358C28.6442 26.4932 27.8412 25.7161 27.0555 25.7247C26.3043 25.7247 25.6653 26.3551 25.6135 27.1408C25.5617 27.9697 26.2352 28.7296 27.0382 28.7382C27.8326 28.7555 28.6097 28.0215 28.6183 27.2358H28.627Z" fill="white"/>
<path d="M16.9969 7.69565C17.7999 7.69565 18.6029 7.68701 19.4059 7.69565C19.6304 7.69565 19.9154 7.69565 20.0535 7.8338C20.2435 8.00649 20.3903 8.29143 20.3989 8.54184C20.4075 8.69726 20.1744 8.93039 20.0017 9.02537C19.8117 9.12035 19.5527 9.12035 19.3282 9.12035C17.7826 9.12035 16.2284 9.12035 14.6828 9.12035C14.5101 9.12035 14.3374 9.10308 14.1734 9.07718C13.7848 9.01674 13.5344 8.72316 13.5776 8.37778C13.6294 7.98059 13.8712 7.73018 14.2424 7.72155C15.1577 7.68701 16.073 7.71292 16.9969 7.71292C16.9969 7.71292 16.9969 7.69565 16.9969 7.68701V7.69565Z" fill="white"/>
<path d="M19.5433 6.04643C19.3015 6.02053 19.0684 6.01189 18.8439 5.96009C18.5244 5.89101 18.3085 5.65788 18.3517 5.3643C18.3862 5.1139 18.5675 4.72534 18.7402 4.6908C19.2324 4.59582 19.7591 4.59582 20.2513 4.6908C20.4326 4.72534 20.683 5.10526 20.6744 5.32976C20.6744 5.54563 20.4153 5.80466 20.1995 5.94282C20.0268 6.05507 19.7591 6.02053 19.5433 6.05507V6.04643Z" fill="white"/>
<path d="M14.5268 6.05505C14.2332 6.00324 13.931 6.01188 13.6806 5.89099C13.5079 5.80465 13.3525 5.54561 13.3352 5.35565C13.318 5.16569 13.4302 4.86348 13.5857 4.7685C14.1642 4.41448 14.7945 4.46629 15.3816 4.75123C15.5371 4.82894 15.6579 5.13115 15.6493 5.32111C15.6493 5.51971 15.5112 5.78738 15.3471 5.88236C15.114 6.01188 14.8031 6.01188 14.5268 6.06369V6.05505Z" fill="white"/>
</svg>
